HIERARCHY
ROOT Bip001_Pelvis
{
  OFFSET 34.4345 95.6767 -26.8758
  CHANNELS 6 Xposition Yposition Zposition Zrotation Xrotation Yrotation
  JOINT Bip001_Spine
  {
    OFFSET 1.4188e-005 10.2191 -0.0116013
    CHANNELS 3 Zrotation Xrotation Yrotation
    JOINT Bip001_L_Thigh
    {
      OFFSET 11.0458 -10.2192 0.0116197
      CHANNELS 3 Zrotation Xrotation Yrotation
      JOINT Bip001_L_Calf
      {
        OFFSET -0.707118 -44.0221 0.360014
        CHANNELS 3 Zrotation Xrotation Yrotation
        JOINT Bip001_L_Foot
        {
          OFFSET -0.651902 -40.5938 -3.56146
          CHANNELS 3 Zrotation Xrotation Yrotation
          JOINT Bip001_L_Toe0
          {
            OFFSET 0.0530839 -10.2181 13.1504
            CHANNELS 3 Zrotation Xrotation Yrotation
            End Site
            {
              OFFSET -1.02532e-005 0 7.55606
            }
          }
        }
      }
    }
    JOINT Bip001_R_Thigh
    {
      OFFSET -11.0458 -10.2191 0.0115893
      CHANNELS 3 Zrotation Xrotation Yrotation
      JOINT Bip001_R_Calf
      {
        OFFSET 0.706994 -44.0221 0.35984
        CHANNELS 3 Zrotation Xrotation Yrotation
        JOINT Bip001_R_Foot
        {
          OFFSET 0.651786 -40.5938 -3.5613
          CHANNELS 3 Zrotation Xrotation Yrotation
          JOINT Bip001_R_Toe0
          {
            OFFSET -0.0531479 -10.2181 13.1504
            CHANNELS 3 Zrotation Xrotation Yrotation
            End Site
            {
              OFFSET -1.02894e-005 0 7.55606
            }
          }
        }
      }
    }
    JOINT Bip001_Spine1
    {
      OFFSET 1.87041e-005 14.5736 1.08638
      CHANNELS 3 Zrotation Xrotation Yrotation
      JOINT Bip001_Spine2
      {
        OFFSET 2.24614e-005 14.5058 -1.69078
        CHANNELS 3 Zrotation Xrotation Yrotation
        JOINT Bip001_Neck
        {
          OFFSET 2.20278e-005 15.3945 -0.489414
          CHANNELS 3 Zrotation Xrotation Yrotation
          JOINT Bip001_L_Clavicle
          {
            OFFSET 6.06036 -0.000579998 0.00836775
            CHANNELS 3 Zrotation Xrotation Yrotation
            JOINT Bip001_L_UpperArm
            {
              OFFSET 11.5509 -0.0600302 0.00193952
              CHANNELS 3 Zrotation Xrotation Yrotation
              JOINT Bip001_L_Forearm
              {
                OFFSET 25.9523 0.0806089 -2.15551
                CHANNELS 3 Zrotation Xrotation Yrotation
                JOINT Bip001_L_Hand
                {
                  OFFSET 32.2475 0.153767 1.63968
                  CHANNELS 3 Zrotation Xrotation Yrotation
                  JOINT Bip001_L_Finger0
                  {
                    OFFSET 6.04639 -2.20976 5.90322
                    CHANNELS 3 Zrotation Xrotation Yrotation
                    End Site
                    {
                      OFFSET 4.22375 -1.43895 0.606485
                    }
                  }
                  JOINT Bip001_L_Finger1
                  {
                    OFFSET 11.0826 -0.704819 -0.198153
                    CHANNELS 3 Zrotation Xrotation Yrotation
                    End Site
                    {
                      OFFSET 6.20027 -0.397518 -0.0787166
                    }
                  }
                }
              }
            }
          }
          JOINT Bip001_R_Clavicle
          {
            OFFSET -6.06037 -0.000563197 0.00835105
            CHANNELS 3 Zrotation Xrotation Yrotation
            JOINT Bip001_R_UpperArm
            {
              OFFSET -11.5509 -0.0599978 0.00190698
              CHANNELS 3 Zrotation Xrotation Yrotation
              JOINT Bip001_R_Forearm
              {
                OFFSET -25.9523 0.0806822 -2.15589
                CHANNELS 3 Zrotation Xrotation Yrotation
                JOINT Bip001_R_Hand
                {
                  OFFSET -32.2475 0.153859 1.63989
                  CHANNELS 3 Zrotation Xrotation Yrotation
                  JOINT Bip001_R_Finger0
                  {
                    OFFSET -6.04641 -2.20976 5.90317
                    CHANNELS 3 Zrotation Xrotation Yrotation
                    End Site
                    {
                      OFFSET -4.22376 -1.43895 0.60647
                    }
                  }
                  JOINT Bip001_R_Finger1
                  {
                    OFFSET -11.0826 -0.704794 -0.198182
                    CHANNELS 3 Zrotation Xrotation Yrotation
                    End Site
                    {
                      OFFSET -6.20028 -0.397504 -0.0787333
                    }
                  }
                }
              }
            }
          }
          JOINT Bip001_Head
          {
            OFFSET 1.09673e-005 11.2744 2.05948
            CHANNELS 3 Zrotation Xrotation Yrotation
            End Site
            {
              OFFSET 2.89576e-005 20.8808 -2.77728e-005
            }
          }
        }
      }
    }
  }
}
MOTION
Frames:	9
Frame Time:	0.04
32.9133 95.9474 -28.9793 0.81104 -0.187185 1.24895 -0.497279 2.05152 1.1568 4.79124 -2.87811 6.85278 -0.174226 6.1823 -8.2172 2.0796 -3.52476 -0.0363494 0.59838 -4.14545 -0.0754265 -3.5263 -3.69299 -0.568143 0.741296 10.9073 -0.0807944 -5.87436 -9.38575 0.572243 2.14736 -7.24625 2.19275 -1.05229 4.08296 2.33385 -1.05229 4.08296 2.33386 4.99552 -9.9028 -5.15357 -29.3475 9.94462 0.154985 -56.8397 43.9627 4.11736 15.2106 -0.278139 -21.3984 8.47205 1.14945 -3.96388 3.18055e-015 0 -1.59028e-015 3.18055e-015 0 1.59028e-015 20.0883 15.7937 12.5982 53.311 -26.8822 4.76975 -131.973 71.3422 133.298 -24.8317 -27.1522 16.5142 -8.82781e-032 1.59028e-015 3.18055e-015 -3.18055e-015 -3.97569e-016 1.98785e-015 -4.4468 -5.90505 -3.14698 
32.9403 95.9349 -28.9716 0.740733 -0.184251 1.19399 -0.495768 2.0624 1.10872 4.83561 -2.98047 7.0176 -0.140984 6.38232 -8.2572 2.22226 -3.57468 -0.0363514 0.702187 -4.19356 -0.137745 -3.44505 -3.75339 -0.260483 0.718013 10.9413 -0.0708806 -5.95446 -9.34522 0.38145 2.14736 -7.24625 2.19274 -1.02969 4.11479 2.23728 -1.02858 4.1148 2.23728 5.20004 -9.73292 -5.03789 -29.4509 9.81821 -0.000499023 -56.8547 44.0861 3.74336 15.1656 0.205491 -21.1077 8.42825 1.08265 -4.17824 -0 0 1.59028e-015 -8.82782e-032 3.18056e-015 1.59028e-015 20.0502 15.5261 12.2887 53.4849 -26.9014 5.07018 -130.263 70.9654 133.025 -24.8285 -26.5471 16.5957 -3.31043e-032 -1.59028e-015 -1.19271e-015 -2.75869e-033 3.97569e-016 3.97569e-016 -4.56511 -6.17333 -2.97857 
33.0065 95.9417 -28.9295 0.760456 -0.217431 1.16009 -0.495561 2.08402 1.09155 4.73936 -2.83067 6.53662 -0.182154 6.1323 -7.89796 2.57794 -3.25812 -0.0490135 0.713872 -4.45005 -0.129938 -3.50036 -3.72614 -0.241071 0.726352 10.9504 -0.00885071 -5.95812 -9.31954 0.379007 2.14416 -7.23165 2.17178 -1.0344 4.15815 2.20161 -1.03468 4.15814 2.20164 5.60595 -9.54498 -5.01614 -29.7444 9.62547 -0.155079 -56.8029 44.401 3.2257 15.0115 0.488341 -20.6022 8.4768 1.47789 -4.11345 -0 0 1.59028e-015 8.82782e-032 -3.18056e-015 1.59028e-015 19.6551 15.0574 11.5551 54.4043 -26.7371 6.23083 -128.3 71.1389 130.871 -23.9904 -24.4473 18.6614 0 0 -3.97569e-016 0 1.98785e-015 -0 -4.88927 -6.46772 -2.81955 
33.048 95.954 -28.8515 0.682228 -0.226371 1.27215 -0.468569 2.08061 1.06574 4.77774 -2.79083 6.63544 -0.20049 6.14397 -8.07479 2.69014 -3.25402 -0.0526285 0.748976 -4.47399 -0.133846 -3.45805 -3.53677 -0.572943 0.633808 10.7228 -0.0039461 -5.88151 -9.26327 0.624688 2.14267 -7.22837 2.16093 -0.977505 4.15196 2.14997 -0.977184 4.15197 2.15071 5.81871 -9.24805 -5.00456 -29.8697 9.3817 -0.423001 -56.8818 44.4901 3.13592 15.0066 0.67054 -20.3638 8.68566 1.64313 -4.09429 -6.36111e-015 3.18055e-015 -1.59028e-015 -6.36111e-015 6.36111e-015 -0 19.3901 14.4502 10.7378 55.1391 -25.7482 7.37354 -126.037 71.2611 127.601 -22.1201 -22.6983 20.357 6.36111e-015 -9.93923e-016 -4.96962e-016 9.54166e-015 -1.78906e-015 -2.98177e-015 -5.04949 -6.62825 -2.73226 
33.1085 95.9626 -28.7283 0.663222 -0.344132 1.42873 -0.455163 2.08755 1.03331 4.78694 -2.59693 6.73064 -0.260724 6.08831 -8.26081 2.76359 -3.23901 -0.0544763 0.780116 -4.48794 -0.175072 -3.4479 -3.2308 -1.08925 0.48286 10.5513 0.0910499 -5.79904 -9.25501 0.908819 2.15084 -7.26975 2.21318 -0.947849 4.1665 2.08047 -0.948175 4.16651 2.07975 6.02118 -9.19184 -4.99528 -30.0669 9.27166 -0.320934 -56.8665 44.5456 3.14812 14.8842 0.504412 -20.3545 8.73702 1.63655 -4.02498 -3.18055e-015 -1.59028e-014 3.18055e-015 5.29669e-031 -1.90833e-014 1.59028e-015 19.0758 14.2241 10.3465 54.9753 -24.4648 7.69124 -123.484 71.3204 125.233 -20.1891 -21.8195 20.7379 3.18055e-015 -4.96962e-016 -1.09332e-015 6.36111e-015 -9.93924e-016 -2.98177e-016 -5.24745 -6.42969 -2.62939 
33.2285 95.9667 -28.5947 0.755679 -0.458917 1.54468 -0.456233 2.0876 1.04167 4.64234 -2.31924 6.85699 -0.282997 5.90758 -8.45735 2.69618 -3.29456 -0.0556967 0.74575 -4.40129 -0.177175 -3.60044 -3.01406 -1.50289 0.403824 10.5823 0.0640604 -5.72596 -9.3394 1.19464 2.15339 -7.30802 2.22166 -0.951518 4.16649 2.10349 -0.951367 4.16648 2.10273 6.13746 -9.15467 -5.07112 -30.2216 9.18489 -0.269344 -56.8174 44.4613 3.32235 14.8089 0.436325 -20.5176 8.52863 1.42985 -3.91626 3.18055e-015 0 1.59028e-015 3.18055e-015 3.18056e-015 1.59028e-015 18.8907 14.1323 10.2424 54.5983 -24.466 7.48011 -122.192 71.3021 124.436 -19.5734 -20.972 20.837 9.54166e-015 1.39149e-015 -3.72721e-015 3.18055e-015 1.39149e-015 -1.59028e-015 -5.47326 -6.33032 -2.6464 
33.2524 95.9718 -28.562 0.689095 -0.303469 1.72771 -0.439622 2.04334 1.04857 4.73405 -2.52868 6.82878 -0.393 6.09769 -8.52511 2.94995 -3.31265 -0.0561362 0.857088 -4.43129 -0.247111 -3.51741 -3.0412 -1.60411 0.327772 10.499 0.0926028 -5.75066 -9.24633 1.08757 2.16419 -7.33624 2.21968 -0.917186 4.07824 2.10879 -0.917096 4.07826 2.10749 6.08956 -9.09701 -5.14403 -30.149 9.10564 -0.236865 -56.7921 44.3161 3.53503 14.7688 0.374881 -20.7656 8.31413 1.43056 -3.80698 3.53112e-031 -6.36111e-015 3.18055e-015 3.18055e-015 -3.18056e-015 3.18055e-015 18.9235 14.1122 10.3519 54.5121 -24.851 7.14017 -122.554 71.0656 125.002 -19.9745 -21.457 20.9374 3.18055e-015 -3.42904e-015 1.68967e-015 3.18055e-015 -1.83876e-015 -5.96354e-016 -5.46674 -6.51277 -2.72767 
33.375 95.973 -28.4284 0.80735 -0.374173 1.83465 -0.451282 2.05846 1.05776 4.55066 -2.28323 6.77787 -0.315397 5.86743 -8.5141 2.22996 -3.57055 -0.037471 0.649961 -4.10713 -0.136412 -3.69303 -2.89402 -2.11795 0.249266 10.5645 0.161816 -5.6963 -9.37817 1.4069 2.18018 -7.36488 2.20349 -0.958712 4.108 2.13414 -0.958534 4.108 2.13413 5.99141 -9.35775 -5.17342 -30.106 9.31645 -0.0390367 -56.7668 44.3298 3.67346 14.6059 -0.192855 -20.9175 8.3899 1.4148 -3.72577 -9.54166e-015 3.18055e-015 -1.59028e-015 -3.18055e-015 3.18056e-015 -4.77083e-015 19.0075 14.359 10.2462 54.8291 -25.4781 7.01617 -124.859 70.486 127.003 -20.3218 -22.1259 21.3856 6.36111e-015 -2.83268e-015 2.98177e-015 3.18055e-015 -3.18056e-015 1.73937e-015 -5.41973 -6.42638 -2.79145 
33.4043 95.9924 -28.3782 0.77447 -0.256679 1.93425 -0.454382 2.02387 1.09184 4.57882 -2.24607 4.80422 -0.556831 5.59896 -6.58788 2.32855 -3.45867 -0.0387562 0.682315 -4.08213 -0.183027 -3.65161 -2.8298 -2.20573 0.197448 10.3643 0.12515 -5.70121 -9.26542 1.40999 2.19739 -7.42017 2.22917 -0.948759 4.03824 2.20169 -0.948485 4.03827 2.20177 6.04802 -9.634 -5.24888 -30.2252 9.52122 0.127202 -56.8279 44.4577 3.87552 14.3929 -0.894136 -21.0076 8.22914 1.34452 -3.56345 8.82781e-032 3.18055e-015 -1.59028e-015 0 0 -1.59028e-015 19.043 14.606 10.054 55.3309 -26.2604 6.86573 -126.762 69.901 128.458 -20.7208 -22.236 21.3907 -5.08634e-033 2.93207e-015 9.93923e-017 3.18055e-015 2.16178e-015 -3.23025e-015 -5.58357 -6.15581 -2.8212 
